<mxfile host="app.diagrams.net" agent="Mozilla/5.0 (Windows NT 10.0; Win64; x64) AppleWebKit/537.36 (KHTML, like Gecko) Chrome/133.0.0.0 Safari/537.36" version="26.0.16">
  <diagram name="Página-1" id="GDNt9Vss6BU4Zptcmk1E">
    <mxGraphModel dx="1434" dy="738" grid="1" gridSize="10" guides="1" tooltips="1" connect="1" arrows="1" fold="1" page="1" pageScale="1" pageWidth="827" pageHeight="1169" math="0" shadow="0">
      <root>
        <mxCell id="0" />
        <mxCell id="1" parent="0" />
        <mxCell id="-TkPGOcFpFGr9JyTpIgo-1" value="Libro" style="whiteSpace=wrap;html=1;align=center;fillColor=#ffe6cc;strokeColor=#d79b00;" parent="1" vertex="1">
          <mxGeometry x="200" y="140" width="100" height="40" as="geometry" />
        </mxCell>
        <mxCell id="-TkPGOcFpFGr9JyTpIgo-2" value="ID" style="ellipse;whiteSpace=wrap;html=1;align=center;fillColor=#f8cecc;strokeColor=#b85450;" parent="1" vertex="1">
          <mxGeometry x="60" y="80" width="100" height="40" as="geometry" />
        </mxCell>
        <mxCell id="-TkPGOcFpFGr9JyTpIgo-3" value="Titulo" style="ellipse;whiteSpace=wrap;html=1;align=center;fillColor=#f8cecc;strokeColor=#b85450;" parent="1" vertex="1">
          <mxGeometry x="60" y="120" width="100" height="40" as="geometry" />
        </mxCell>
        <mxCell id="-TkPGOcFpFGr9JyTpIgo-4" value="Autor" style="ellipse;whiteSpace=wrap;html=1;align=center;fillColor=#f8cecc;strokeColor=#b85450;" parent="1" vertex="1">
          <mxGeometry x="60" y="160" width="100" height="40" as="geometry" />
        </mxCell>
        <mxCell id="-TkPGOcFpFGr9JyTpIgo-5" value="Año Publicación&lt;span style=&quot;background-color: transparent; color: light-dark(rgb(0, 0, 0), rgb(255, 255, 255));&quot;&gt;&amp;nbsp;&lt;/span&gt;" style="ellipse;whiteSpace=wrap;html=1;align=center;fillColor=#f8cecc;strokeColor=#b85450;" parent="1" vertex="1">
          <mxGeometry x="60" y="200" width="100" height="40" as="geometry" />
        </mxCell>
        <mxCell id="-TkPGOcFpFGr9JyTpIgo-6" value="Categorías&amp;nbsp;" style="whiteSpace=wrap;html=1;align=center;fillColor=#ffe6cc;strokeColor=#d79b00;" parent="1" vertex="1">
          <mxGeometry x="580" y="140" width="100" height="40" as="geometry" />
        </mxCell>
        <mxCell id="-TkPGOcFpFGr9JyTpIgo-9" value="Pertenece" style="shape=rhombus;perimeter=rhombusPerimeter;whiteSpace=wrap;html=1;align=center;" parent="1" vertex="1">
          <mxGeometry x="380" y="130" width="120" height="60" as="geometry" />
        </mxCell>
        <mxCell id="-TkPGOcFpFGr9JyTpIgo-10" value="Estudiantes" style="whiteSpace=wrap;html=1;align=center;fillColor=#ffe6cc;strokeColor=#d79b00;" parent="1" vertex="1">
          <mxGeometry x="580" y="340" width="100" height="40" as="geometry" />
        </mxCell>
        <mxCell id="-TkPGOcFpFGr9JyTpIgo-11" value="ID" style="ellipse;whiteSpace=wrap;html=1;align=center;fillColor=#d5e8d4;strokeColor=#82b366;" parent="1" vertex="1">
          <mxGeometry x="690" y="380" width="100" height="40" as="geometry" />
        </mxCell>
        <mxCell id="-TkPGOcFpFGr9JyTpIgo-12" value="Nombre" style="ellipse;whiteSpace=wrap;html=1;align=center;fillColor=#d5e8d4;strokeColor=#82b366;" parent="1" vertex="1">
          <mxGeometry x="690" y="420" width="100" height="40" as="geometry" />
        </mxCell>
        <mxCell id="-TkPGOcFpFGr9JyTpIgo-13" value="Carrera" style="ellipse;whiteSpace=wrap;html=1;align=center;fillColor=#d5e8d4;strokeColor=#82b366;" parent="1" vertex="1">
          <mxGeometry x="690" y="460" width="100" height="40" as="geometry" />
        </mxCell>
        <mxCell id="-TkPGOcFpFGr9JyTpIgo-14" value="Email" style="ellipse;whiteSpace=wrap;html=1;align=center;fillColor=#d5e8d4;strokeColor=#82b366;" parent="1" vertex="1">
          <mxGeometry x="690" y="500" width="100" height="40" as="geometry" />
        </mxCell>
        <mxCell id="-TkPGOcFpFGr9JyTpIgo-16" value="" style="endArrow=none;html=1;rounded=0;exitX=1;exitY=0.5;exitDx=0;exitDy=0;entryX=0;entryY=0.5;entryDx=0;entryDy=0;" parent="1" source="-TkPGOcFpFGr9JyTpIgo-1" target="-TkPGOcFpFGr9JyTpIgo-9" edge="1">
          <mxGeometry relative="1" as="geometry">
            <mxPoint x="350" y="310" as="sourcePoint" />
            <mxPoint x="510" y="310" as="targetPoint" />
          </mxGeometry>
        </mxCell>
        <mxCell id="-TkPGOcFpFGr9JyTpIgo-17" value="" style="endArrow=none;html=1;rounded=0;exitX=1;exitY=0.5;exitDx=0;exitDy=0;entryX=0;entryY=0.5;entryDx=0;entryDy=0;" parent="1" source="-TkPGOcFpFGr9JyTpIgo-9" target="-TkPGOcFpFGr9JyTpIgo-6" edge="1">
          <mxGeometry relative="1" as="geometry">
            <mxPoint x="310" y="170" as="sourcePoint" />
            <mxPoint x="390" y="170" as="targetPoint" />
          </mxGeometry>
        </mxCell>
        <mxCell id="-TkPGOcFpFGr9JyTpIgo-19" value="Prestamo" style="whiteSpace=wrap;html=1;align=center;fillColor=#ffe6cc;strokeColor=#d79b00;" parent="1" vertex="1">
          <mxGeometry x="200" y="340" width="100" height="40" as="geometry" />
        </mxCell>
        <mxCell id="-TkPGOcFpFGr9JyTpIgo-20" value="Fecha de Inicio" style="ellipse;whiteSpace=wrap;html=1;align=center;fillColor=#dae8fc;strokeColor=#6c8ebf;" parent="1" vertex="1">
          <mxGeometry x="60" y="360" width="100" height="40" as="geometry" />
        </mxCell>
        <mxCell id="-TkPGOcFpFGr9JyTpIgo-21" value="Fecha Finalización&amp;nbsp;" style="ellipse;whiteSpace=wrap;html=1;align=center;fillColor=#dae8fc;strokeColor=#6c8ebf;" parent="1" vertex="1">
          <mxGeometry x="60" y="320" width="100" height="40" as="geometry" />
        </mxCell>
        <mxCell id="w6V48qZ9a-V51a5xOPc7-1" value="Estado" style="strokeWidth=2;html=1;shape=mxgraph.flowchart.merge_or_storage;whiteSpace=wrap;" vertex="1" parent="1">
          <mxGeometry x="414" y="570" width="76" height="50" as="geometry" />
        </mxCell>
      </root>
    </mxGraphModel>
  </diagram>
</mxfile>
